<svg id="visual" viewBox="0 0 900 900" width="900" height="900" xmlns="http://www.w3.org/2000/svg" xmlns:xlink="http://www.w3.org/1999/xlink" version="1.1"><path d="M0 340L39 588L78 606L117 448L157 332L196 595L235 501L274 402L313 370L352 351L391 400L430 456L470 588L509 362L548 359L587 622L626 461L665 420L704 627L743 594L783 351L822 505L861 405L900 427L900 0L861 0L822 0L783 0L743 0L704 0L665 0L626 0L587 0L548 0L509 0L470 0L430 0L391 0L352 0L313 0L274 0L235 0L196 0L157 0L117 0L78 0L39 0L0 0Z" fill="#b45309"></path><path d="M0 364L39 413L78 522L117 332L157 370L196 390L235 543L274 345L313 318L352 436L391 481L430 460L470 381L509 453L548 394L587 433L626 310L665 325L704 549L743 411L783 287L822 497L861 517L900 484L900 0L861 0L822 0L783 0L743 0L704 0L665 0L626 0L587 0L548 0L509 0L470 0L430 0L391 0L352 0L313 0L274 0L235 0L196 0L157 0L117 0L78 0L39 0L0 0Z" fill="#c46706"></path><path d="M0 306L39 424L78 260L117 384L157 262L196 305L235 280L274 238L313 386L352 454L391 281L430 288L470 424L509 447L548 226L587 295L626 327L665 398L704 420L743 322L783 270L822 290L861 287L900 352L900 0L861 0L822 0L783 0L743 0L704 0L665 0L626 0L587 0L548 0L509 0L470 0L430 0L391 0L352 0L313 0L274 0L235 0L196 0L157 0L117 0L78 0L39 0L0 0Z" fill="#d27b02"></path><path d="M0 290L39 383L78 205L117 393L157 338L196 385L235 327L274 218L313 335L352 170L391 218L430 250L470 268L509 283L548 177L587 346L626 307L665 184L704 371L743 283L783 387L822 336L861 188L900 309L900 0L861 0L822 0L783 0L743 0L704 0L665 0L626 0L587 0L548 0L509 0L470 0L430 0L391 0L352 0L313 0L274 0L235 0L196 0L157 0L117 0L78 0L39 0L0 0Z" fill="#df9000"></path><path d="M0 161L39 264L78 175L117 297L157 204L196 221L235 258L274 189L313 308L352 300L391 225L430 184L470 291L509 299L548 176L587 185L626 283L665 128L704 237L743 252L783 298L822 148L861 259L900 292L900 0L861 0L822 0L783 0L743 0L704 0L665 0L626 0L587 0L548 0L509 0L470 0L430 0L391 0L352 0L313 0L274 0L235 0L196 0L157 0L117 0L78 0L39 0L0 0Z" fill="#eaa600"></path><path d="M0 90L39 154L78 231L117 110L157 172L196 69L235 66L274 112L313 97L352 221L391 84L430 73L470 209L509 76L548 89L587 118L626 103L665 69L704 165L743 214L783 119L822 169L861 61L900 97L900 0L861 0L822 0L783 0L743 0L704 0L665 0L626 0L587 0L548 0L509 0L470 0L430 0L391 0L352 0L313 0L274 0L235 0L196 0L157 0L117 0L78 0L39 0L0 0Z" fill="#f4bc04"></path><path d="M0 106L39 23L78 11L117 23L157 53L196 106L235 113L274 102L313 32L352 118L391 115L430 124L470 40L509 108L548 155L587 146L626 89L665 107L704 53L743 94L783 155L822 152L861 68L900 17L900 0L861 0L822 0L783 0L743 0L704 0L665 0L626 0L587 0L548 0L509 0L470 0L430 0L391 0L352 0L313 0L274 0L235 0L196 0L157 0L117 0L78 0L39 0L0 0Z" fill="#fcd311"></path></svg>