<svg id="visual" viewBox="0 0 900 900" width="900" height="900" xmlns="http://www.w3.org/2000/svg" xmlns:xlink="http://www.w3.org/1999/xlink" version="1.1"><path d="M0 558L39 310L78 292L117 450L157 566L196 303L235 397L274 496L313 528L352 547L391 498L430 442L470 310L509 536L548 539L587 276L626 437L665 478L704 271L743 304L783 547L822 393L861 493L900 471L900 901L861 901L822 901L783 901L743 901L704 901L665 901L626 901L587 901L548 901L509 901L470 901L430 901L391 901L352 901L313 901L274 901L235 901L196 901L157 901L117 901L78 901L39 901L0 901Z" fill="#fcd311"></path><path d="M0 534L39 485L78 376L117 566L157 528L196 508L235 355L274 553L313 580L352 462L391 417L430 438L470 517L509 445L548 504L587 465L626 588L665 573L704 349L743 487L783 611L822 401L861 381L900 414L900 901L861 901L822 901L783 901L743 901L704 901L665 901L626 901L587 901L548 901L509 901L470 901L430 901L391 901L352 901L313 901L274 901L235 901L196 901L157 901L117 901L78 901L39 901L0 901Z" fill="#f4bc04"></path><path d="M0 592L39 474L78 638L117 514L157 636L196 593L235 618L274 660L313 512L352 444L391 617L430 610L470 474L509 451L548 672L587 603L626 571L665 500L704 478L743 576L783 628L822 608L861 611L900 546L900 901L861 901L822 901L783 901L743 901L704 901L665 901L626 901L587 901L548 901L509 901L470 901L430 901L391 901L352 901L313 901L274 901L235 901L196 901L157 901L117 901L78 901L39 901L0 901Z" fill="#eaa600"></path><path d="M0 608L39 515L78 693L117 505L157 560L196 513L235 571L274 680L313 563L352 728L391 680L430 648L470 630L509 615L548 721L587 552L626 591L665 714L704 527L743 615L783 511L822 562L861 710L900 589L900 901L861 901L822 901L783 901L743 901L704 901L665 901L626 901L587 901L548 901L509 901L470 901L430 901L391 901L352 901L313 901L274 901L235 901L196 901L157 901L117 901L78 901L39 901L0 901Z" fill="#df9000"></path><path d="M0 737L39 634L78 723L117 601L157 694L196 677L235 640L274 709L313 590L352 598L391 673L430 714L470 607L509 599L548 722L587 713L626 615L665 770L704 661L743 646L783 600L822 750L861 639L900 606L900 901L861 901L822 901L783 901L743 901L704 901L665 901L626 901L587 901L548 901L509 901L470 901L430 901L391 901L352 901L313 901L274 901L235 901L196 901L157 901L117 901L78 901L39 901L0 901Z" fill="#d27b02"></path><path d="M0 808L39 744L78 667L117 788L157 726L196 829L235 832L274 786L313 801L352 677L391 814L430 825L470 689L509 822L548 809L587 780L626 795L665 829L704 733L743 684L783 779L822 729L861 837L900 801L900 901L861 901L822 901L783 901L743 901L704 901L665 901L626 901L587 901L548 901L509 901L470 901L430 901L391 901L352 901L313 901L274 901L235 901L196 901L157 901L117 901L78 901L39 901L0 901Z" fill="#c46706"></path><path d="M0 792L39 875L78 887L117 875L157 845L196 792L235 785L274 796L313 866L352 780L391 783L430 774L470 858L509 790L548 743L587 752L626 809L665 791L704 845L743 804L783 743L822 746L861 830L900 881L900 901L861 901L822 901L783 901L743 901L704 901L665 901L626 901L587 901L548 901L509 901L470 901L430 901L391 901L352 901L313 901L274 901L235 901L196 901L157 901L117 901L78 901L39 901L0 901Z" fill="#b45309"></path></svg>